<?xml version="1.0" encoding="utf-8"?>
<!-- Generator: Adobe Illustrator 17.0.0, SVG Export Plug-In . SVG Version: 6.00 Build 0)  -->
<!DOCTYPE svg PUBLIC "-//W3C//DTD SVG 1.1//EN" "http://www.w3.org/Graphics/SVG/1.1/DTD/svg11.dtd">

<svg version="1.1" id="Layer_1" xmlns="http://www.w3.org/2000/svg" xmlns:xlink="http://www.w3.org/1999/xlink" x="0px" y="0px"
	 width="1160px" height="876px" viewBox="0 0 1160 876" enable-background="new 0 0 1160 876" xml:space="preserve">
	 
<g>
	<rect x="477.722" y="587.292" fill="#23638E" width="211.464" height="17.65"/>
	<g opacity="0.3">
		<g>
			<defs>
				<rect id="SVGID_1_" x="412.007" y="348.016" width="283.917" height="255.946"/>
			</defs>
			<clipPath id="SVGID_2_">
				<use xlink:href="#SVGID_1_"  overflow="visible"/>
			</clipPath>
			<g clip-path="url(#SVGID_2_)">
				<defs>
					<rect id="SVGID_3_" x="412.007" y="348.016" width="283.917" height="255.946"/>
				</defs>
				<clipPath id="SVGID_4_">
					<use xlink:href="#SVGID_3_"  overflow="visible"/>
				</clipPath>
				<path clip-path="url(#SVGID_4_)" fill="#23638E" d="M450.846,601.02h-35.51c-1.839,0-3.329-1.49-3.329-3.329V480.566
					c0-1.838,1.49-3.329,3.329-3.329h35.51c1.839,0,3.329,1.491,3.329,3.329v117.125C454.175,599.53,452.685,601.02,450.846,601.02"
					/>
				<path clip-path="url(#SVGID_4_)" fill="#23638E" d="M507.641,603.961h-50.055c-2.967,0-5.373-2.405-5.373-5.372V385.747
					c0-2.967,2.406-5.372,5.373-5.372h50.055c2.967,0,5.373,2.405,5.373,5.372v212.842
					C513.014,601.556,510.608,603.961,507.641,603.961"/>
				<path clip-path="url(#SVGID_4_)" fill="#23638E" d="M668.442,601.02h-34.314c-2.44,0-4.417-1.978-4.417-4.417V392.479
					c0-2.439,1.977-4.417,4.417-4.417h34.314c2.439,0,4.417,1.978,4.417,4.417v204.124
					C672.859,599.042,670.881,601.02,668.442,601.02"/>
				<path clip-path="url(#SVGID_4_)" fill="#23638E" d="M691.167,601.02h-32.648c-2.629,0-4.76-2.131-4.76-4.76V352.773
					c0-2.628,2.131-4.759,4.76-4.759h32.648c2.629,0,4.76,2.131,4.76,4.759V596.26C695.927,598.889,693.796,601.02,691.167,601.02"
					/>
				<path clip-path="url(#SVGID_4_)" fill="#23638E" d="M611.256,601.02h-34.679c-1.526,0-2.763-1.237-2.763-2.765v-83.963
					c0-1.527,1.237-2.764,2.763-2.764h34.679c1.526,0,2.764,1.237,2.764,2.764v83.963C614.02,599.783,612.782,601.02,611.256,601.02
					"/>
			</g>
		</g>
	</g>
	<path fill="#23638E" d="M456.482,638.285h-19.081c-2.651,0-4.8-2.149-4.8-4.801V427.343c0-2.651,2.149-4.8,4.8-4.8h51.2
		c2.651,0,4.8,2.149,4.8,4.8v174.023C493.401,621.756,476.872,638.285,456.482,638.285"/>
	<path fill="#23638E" d="M568.441,604.942h-50.055c-2.966,0-5.372-2.405-5.372-5.372V363.192c0-2.966,2.406-5.372,5.372-5.372
		h50.055c2.968,0,5.373,2.406,5.373,5.372V599.57C573.814,602.537,571.409,604.942,568.441,604.942"/>
	<path fill="#23638E" d="M739.018,638.285h-22.954c-17.112,0-30.984-13.872-30.984-30.983V243.083c0-3.79,3.073-6.862,6.863-6.862
		h47.075c3.79,0,6.862,3.072,6.862,6.862v388.339C745.88,635.212,742.808,638.285,739.018,638.285"/>
	<path fill="#23638E" d="M650.046,604.942h-52.44c-2.309,0-4.18-1.871-4.18-4.18V375.729c0-2.308,1.871-4.18,4.18-4.18h52.44
		c2.309,0,4.18,1.872,4.18,4.18v225.033C654.226,603.071,652.355,604.942,650.046,604.942"/>
	<rect x="439.919" y="432.349" fill="#FFFFFF" width="10.862" height="17.651"/>
	<rect x="457.57" y="432.349" fill="#FFFFFF" width="10.862" height="17.651"/>
	<rect x="475.222" y="432.349" fill="#FFFFFF" width="10.862" height="17.651"/>
	<rect x="439.919" y="465.691" fill="#FFFFFF" width="10.862" height="17.651"/>
	<rect x="457.57" y="465.691" fill="#FFFFFF" width="10.862" height="17.651"/>
	<rect x="475.222" y="465.691" fill="#FFFFFF" width="10.862" height="17.651"/>
	<rect x="439.919" y="499.033" fill="#FFFFFF" width="10.862" height="17.651"/>
	<rect x="457.57" y="499.033" fill="#FFFFFF" width="10.862" height="17.651"/>
	<rect x="475.222" y="499.033" fill="#FFFFFF" width="10.862" height="17.651"/>
	<rect x="439.919" y="532.376" fill="#FFFFFF" width="10.862" height="17.65"/>
	<rect x="457.57" y="532.376" fill="#FFFFFF" width="10.862" height="17.65"/>
	<rect x="475.222" y="532.376" fill="#FFFFFF" width="10.862" height="17.65"/>
	<rect x="520.331" y="399.008" fill="#FFFFFF" width="10.862" height="17.651"/>
	<rect x="537.982" y="399.008" fill="#FFFFFF" width="10.863" height="17.651"/>
	<rect x="555.635" y="399.008" fill="#FFFFFF" width="10.862" height="17.651"/>
	<rect x="520.331" y="369.588" fill="#FFFFFF" width="10.862" height="17.651"/>
	<rect x="537.982" y="369.588" fill="#FFFFFF" width="10.863" height="17.651"/>
	<rect x="555.635" y="369.588" fill="#FFFFFF" width="10.862" height="17.651"/>
	<rect x="520.331" y="432.349" fill="#FFFFFF" width="10.862" height="17.651"/>
	<rect x="537.982" y="432.349" fill="#FFFFFF" width="10.863" height="17.651"/>
	<rect x="555.635" y="432.349" fill="#FFFFFF" width="10.862" height="17.651"/>
	<rect x="520.331" y="465.691" fill="#FFFFFF" width="10.862" height="17.651"/>
	<rect x="537.982" y="465.691" fill="#FFFFFF" width="10.863" height="17.651"/>
	<rect x="555.635" y="465.691" fill="#FFFFFF" width="10.862" height="17.651"/>
	<rect x="520.331" y="499.033" fill="#FFFFFF" width="10.862" height="17.651"/>
	<rect x="537.982" y="499.033" fill="#FFFFFF" width="10.863" height="17.651"/>
	<rect x="555.635" y="499.033" fill="#FFFFFF" width="10.862" height="17.651"/>
	<rect x="520.331" y="532.376" fill="#FFFFFF" width="10.862" height="17.65"/>
	<rect x="537.982" y="532.376" fill="#FFFFFF" width="10.863" height="17.65"/>
	<rect x="555.635" y="532.376" fill="#FFFFFF" width="10.862" height="17.65"/>
	<rect x="600.744" y="475.499" fill="#FFFFFF" width="10.862" height="17.65"/>
	<rect x="618.395" y="475.499" fill="#FFFFFF" width="10.861" height="17.65"/>
	<rect x="636.047" y="475.499" fill="#FFFFFF" width="10.863" height="17.65"/>
	<rect x="600.744" y="508.841" fill="#FFFFFF" width="10.862" height="17.65"/>
	<rect x="618.395" y="508.841" fill="#FFFFFF" width="10.861" height="17.65"/>
	<rect x="636.047" y="508.841" fill="#FFFFFF" width="10.863" height="17.65"/>
	<rect x="600.744" y="542.181" fill="#FFFFFF" width="10.862" height="17.651"/>
	<rect x="618.395" y="542.181" fill="#FFFFFF" width="10.861" height="17.651"/>
	<rect x="636.047" y="542.181" fill="#FFFFFF" width="10.863" height="17.651"/>
	<rect x="600.744" y="379.394" fill="#FFFFFF" width="10.862" height="17.652"/>
	<rect x="618.395" y="379.394" fill="#FFFFFF" width="10.861" height="17.652"/>
	<rect x="636.047" y="379.394" fill="#FFFFFF" width="10.863" height="17.652"/>
	<rect x="600.744" y="412.737" fill="#FFFFFF" width="10.862" height="17.651"/>
	<rect x="618.395" y="412.737" fill="#FFFFFF" width="10.861" height="17.651"/>
	<rect x="636.047" y="412.737" fill="#FFFFFF" width="10.863" height="17.651"/>
	<rect x="600.744" y="446.079" fill="#FFFFFF" width="10.862" height="17.651"/>
	<rect x="618.395" y="446.079" fill="#FFFFFF" width="10.861" height="17.651"/>
	<rect x="636.047" y="446.079" fill="#FFFFFF" width="10.863" height="17.651"/>
	<rect x="692.398" y="508.841" fill="#FFFFFF" width="10.862" height="17.65"/>
	<rect x="710.05" y="508.841" fill="#FFFFFF" width="10.862" height="17.65"/>
	<rect x="727.701" y="508.841" fill="#FFFFFF" width="10.862" height="17.65"/>
	<rect x="692.398" y="542.181" fill="#FFFFFF" width="10.862" height="17.651"/>
	<rect x="710.05" y="542.181" fill="#FFFFFF" width="10.862" height="17.651"/>
	<rect x="727.701" y="542.181" fill="#FFFFFF" width="10.862" height="17.651"/>
	<rect x="692.398" y="244.066" fill="#FFFFFF" width="10.862" height="17.651"/>
	<rect x="710.05" y="244.066" fill="#FFFFFF" width="10.862" height="17.651"/>
	<rect x="727.701" y="244.066" fill="#FFFFFF" width="10.862" height="17.651"/>
	<rect x="692.398" y="277.407" fill="#FFFFFF" width="10.862" height="17.652"/>
	<rect x="710.05" y="277.407" fill="#FFFFFF" width="10.862" height="17.652"/>
	<rect x="727.701" y="277.407" fill="#FFFFFF" width="10.862" height="17.652"/>
	<rect x="692.398" y="310.749" fill="#FFFFFF" width="10.862" height="17.652"/>
	<rect x="710.05" y="310.749" fill="#FFFFFF" width="10.862" height="17.652"/>
	<rect x="727.701" y="310.749" fill="#FFFFFF" width="10.862" height="17.652"/>
	<rect x="692.398" y="344.092" fill="#FFFFFF" width="10.862" height="17.651"/>
	<rect x="710.05" y="344.092" fill="#FFFFFF" width="10.862" height="17.651"/>
	<rect x="727.701" y="344.092" fill="#FFFFFF" width="10.862" height="17.651"/>
	<rect x="692.398" y="377.433" fill="#FFFFFF" width="10.862" height="17.651"/>
	<rect x="710.05" y="377.433" fill="#FFFFFF" width="10.862" height="17.651"/>
	<rect x="727.701" y="377.433" fill="#FFFFFF" width="10.862" height="17.651"/>
	<rect x="692.398" y="408.813" fill="#FFFFFF" width="10.862" height="17.652"/>
	<rect x="710.05" y="408.813" fill="#FFFFFF" width="10.862" height="17.652"/>
	<rect x="727.701" y="408.813" fill="#FFFFFF" width="10.862" height="17.652"/>
	<rect x="692.398" y="442.155" fill="#FFFFFF" width="10.862" height="17.652"/>
	<rect x="710.05" y="442.155" fill="#FFFFFF" width="10.862" height="17.652"/>
	<rect x="727.701" y="442.155" fill="#FFFFFF" width="10.862" height="17.652"/>
	<rect x="692.398" y="475.499" fill="#FFFFFF" width="10.862" height="17.65"/>
	<rect x="710.05" y="475.499" fill="#FFFFFF" width="10.862" height="17.65"/>
	<rect x="727.701" y="475.499" fill="#FFFFFF" width="10.862" height="17.65"/>
	<path fill="#23638E" d="M386.67,421.276c-2.884,0-5.741-1.252-7.698-3.667c-3.446-4.248-2.794-10.485,1.455-13.93l122.15-99.041
		c2.902-2.354,6.887-2.873,10.296-1.341l84.035,18.541l93.672-131.99c3.971-3.766,10.238-3.6,14.002,0.368
		c3.766,3.968,3.6,10.237-0.367,14.001l-98.49,136.561c-2.915,2.767-7.213,3.497-10.877,1.85l-84.532-18.765L392.9,419.065
		C391.066,420.552,388.861,421.276,386.67,421.276"/>
	<path fill="#23638E" d="M721.156,227.035c-5.225,1.012-10.345-2.301-11.534-7.529l-7.32-32.191l-32.191,7.32
		c-5.413,1.216-10.643-2.128-11.854-7.462c-1.213-5.333,2.128-10.64,7.461-11.853l41.849-9.517
		c5.389-1.21,10.642,2.129,11.855,7.462l9.516,41.849c1.213,5.334-2.129,10.641-7.462,11.854
		C721.37,226.992,721.261,227.014,721.156,227.035"/>
	<path fill="#23638E" d="M461.41,637.463H257.305c-60.877,0-117.854-25.957-156.318-71.217
		C68.156,527.62,51.51,480.348,51.51,425.742c0-37.475,8.931-70.333,26.543-97.66c14.831-23.012,35.438-41.651,61.25-55.399
		c34.418-18.333,74.488-25.306,101.372-22.53c2.271-11.565,6.706-26.651,15.369-41.74c16.379-28.528,51.073-62.534,123.349-62.534
		c24.093,0,44.164,6.56,59.772,14.673c-1.558-19.629,0.187-43.02,10.853-65.273c14.616-30.491,42.342-51.968,82.407-63.837
		c0.233-0.069,0.471-0.133,0.708-0.192c1.283-0.32,31.842-7.719,67.367,1.271c28.155,7.125,64.035,25.787,87.017,73.209
		c21.073-22.151,59.923-49.953,119.594-45.001c49.272,4.086,94.53,29.35,127.435,71.135c31.655,40.199,47.46,91.346,43.358,140.325
		c-0.759,9.079-8.762,15.826-17.89,15.068c-9.121-0.757-15.899-8.729-15.139-17.808c7.272-86.863-58.389-169.034-140.517-175.845
		c-73.038-6.068-105.779,50.964-107.138,53.394c-3.194,5.846-9.608,9.175-16.24,8.487c-6.651-0.683-12.22-5.31-14.148-11.681
		c-13.146-43.446-38.212-70.129-74.5-79.311c-25.577-6.473-48.281-1.873-50.909-1.296c-30.362,9.087-51.021,24.598-61.403,46.106
		c-18.53,38.39,0.13,85.085,0.32,85.552c3.097,7.59,0.136,16.313-6.964,20.458c-7.097,4.142-16.171,2.495-21.314-3.905
		c-1.039-1.264-27.262-32.54-72.669-32.54c-45.262,0-77.08,15.446-94.572,45.912c-13.017,22.674-13.381,45.812-13.381,46.039
		c0,6.083-3.364,11.673-8.752,14.543c-5.323,2.834-11.764,2.562-16.821-0.692c-9.085-4.48-56.563-4.105-98.373,21.341
		c-41.696,25.38-62.84,65.662-62.84,119.731c0,46.588,14.008,86.694,41.638,119.198c32.154,37.835,79.906,59.535,131.013,59.535
		H461.41c9.153,0,16.573,7.384,16.573,16.494C477.983,630.078,470.563,637.463,461.41,637.463 M245.675,284.543
		c0.026,0.018,0.054,0.036,0.082,0.054C245.729,284.579,245.701,284.562,245.675,284.543"/>
	<rect x="84.308" y="674.566" fill="#23638E" width="1003.199" height="9.808"/>
	<path fill="#23638E" d="M968.548,262.5c-7.731-1.18-15.453-1.791-23.078-1.848l-2.313,10.417
		c-2.442,11.006,4.912,21.79,16.051,23.534c4.576,0.201,0,0,4.338,0.662c53.847,8.218,111.799,51.923,111.799,128.465
		c0,11.874-0.886,23.505-2.635,34.568c-13.633,86.28-87.539,148.901-175.73,148.901H718.986c-9.291,0-17.179,7.603-17.005,16.89
		c0.169,9.008,7.523,16.257,16.57,16.257H896.98c50.077,0,98.693-17.784,136.896-50.077c38.358-32.427,63.777-77.458,71.575-126.799
		c2.016-12.768,3.039-26.138,3.039-39.74C1108.49,327.629,1035.948,272.786,968.548,262.5"/>
		<defs>
			<style type="text/css">
			@font-face {
			  font-family: 'Poppins';
			  font-style: normal;
			  font-weight: 400;
			  font-display: swap;
			  src: local('Poppins Regular'), local('Poppins-Regular'), url(https://fonts.gstatic.com/s/poppins/v9/pxiEyp8kv8JHgFVrJJbecmNE.woff2) format('woff2');
			  unicode-range: U+0900-097F, U+1CD0-1CF6, U+1CF8-1CF9, U+200C-200D, U+20A8, U+20B9, U+25CC, U+A830-A839, U+A8E0-A8FB;
			}
			</style>
		</defs>
		<text transform="matrix(1 0 0 1 84.3832 787.3152)" fill="#23638E" font-family="'Poppins'" font-size="80">SQUARE FOOT EXCHANGE</text>
</g>
</svg>
